<?xml version="1.0" encoding="utf-8"?>
<!-- Generated by IcoMoon.io -->
<!DOCTYPE svg PUBLIC "-//W3C//DTD SVG 1.1//EN" "http://www.w3.org/Graphics/SVG/1.1/DTD/svg11.dtd">
<svg version="1.1" xmlns="http://www.w3.org/2000/svg" xmlns:xlink="http://www.w3.org/1999/xlink" width="1024" height="1024" viewBox="0 0 1024 1024">
<g id="icomoon-ignore">
</g>
<path d="M782.114 184.32h190.672v94.207c0.008 0.809 0.016 2.121 0.016 2.928 0 119.635-75.178 222.918-167.807 230.544h-49.576c-31.615 91.557-119.314 180.738-195.758 199.066v128.613h127.115v81.92h-317.788v-81.92h127.115v-122.879c-89.93-6.453-191.865-98.203-227.538-204.8h-30.189c-99.496-7.305-183.352-117.404-187.178-245.76v-81.92h190.674v-81.92h540.24v81.92zM241.874 430.080v-163.84h-127.115c3.717 83.328 59.098 156.729 123.619 163.84h3.496zM512.31 634.88c113.906-2.811 206.352-124.266 206.352-271.106 0-2.389-0.049-6.266-0.107-8.652v-170.803h-413.124v169.574c-0.098 3.072-0.178 8.059-0.178 11.133 0 145.549 91.623 266.444 204.516 269.854h2.543zM909.228 278.528v-12.287h-127.115v163.84h23.197c59.428 0 103.918-79.873 103.918-151.553z"></path>
</svg>
