<!-- Generated by IcoMoon.io -->
<svg version="1.1" xmlns="http://www.w3.org/2000/svg" width="1024" height="1024" viewBox="0 0 1024 1024">
<g id="icomoon-ignore">
</g>
<path d="M887.131 375.735c0.002 0.459 0.004 1.203 0.004 1.662 0 72.789-37.111 177.83-82.838 234.462v300.87c0.025 0.883 0.045 2.314 0.045 3.197 0 35.572-24.973 78.928-55.744 96.773-11.697 6.324-31.98 11.455-45.275 11.455-0.645 0-1.688-0.014-2.33-0.029-17.395-0.23-43.201-8.334-57.604-18.090l-110.922-79.502c-1.91-1.016-5.215-1.84-7.379-1.84-2.162 0-5.469 0.824-7.379 1.84l-117.109 75.217c-14.051 9.145-39.062 16.566-55.826 16.566-14.852 0-37.402-5.93-50.336-13.232-34.424-18.527-62.363-65.291-62.363-104.383v-275.988c-52.557-58.908-95.211-170.791-95.211-249.736 0-207.074 168.061-375.132 375.134-375.132s375.132 168.059 375.132 375.132v0.758zM511.995 95.813c-154.254 0.262-279.66 125.668-279.922 279.922 0 154.518 125.406 279.922 279.922 279.922 154.518 0 279.922-125.404 279.922-279.922 0-154.516-125.404-279.922-279.922-279.922v0zM702.419 929.392v-0.477c3.16-3.092 5.725-9.189 5.725-13.611 0-0.186-0.006-0.484-0.012-0.67v-218.036c-49.83 30.846-137.836 55.879-196.441 55.879-54.451 0-137.064-21.834-184.404-48.738v196.611c0.068 7.76 5.613 17.145 12.377 20.947 1.113 0.822 3.139 1.488 4.521 1.488 1.385 0 3.41-0.666 4.523-1.488l117.586-74.74c15.174-9.811 42.152-17.771 60.221-17.771s45.049 7.961 60.223 17.771l111.396 82.834c0.572 0.211 1.533 0.383 2.143 0.383s1.57-0.172 2.143-0.383z"></path>
</svg>
