<?xml version="1.0" encoding="utf-8"?>
<!-- Generated by IcoMoon.io -->
<!DOCTYPE svg PUBLIC "-//W3C//DTD SVG 1.1//EN" "http://www.w3.org/Graphics/SVG/1.1/DTD/svg11.dtd">
<svg version="1.1" xmlns="http://www.w3.org/2000/svg" xmlns:xlink="http://www.w3.org/1999/xlink" width="67" height="64" viewBox="0 0 67 64">
<path d="M67.474 24.411c-0.622-1.918-2.263-3.335-4.269-3.623l-17.003-2.472-7.589-15.238c-0.886-1.764-2.681-2.954-4.754-2.954s-3.868 1.19-4.74 2.924l-7.602 15.269-16.975 2.469c-2.67 0.3-4.727 2.546-4.727 5.271 0 1.526 0.644 2.901 1.676 3.869l12.193 11.98-3.048 16.914c-0.048 0.268-0.075 0.577-0.075 0.892 0 2.929 2.374 5.303 5.303 5.303 0.909 0 1.764-0.228 2.511-0.631l15.21-7.971 15.238 7.985c0.777 0.472 1.716 0.751 2.721 0.751 2.929 0 5.303-2.374 5.303-5.303 0-0.363-0.036-0.717-0.106-1.060l-3.042-16.88 12.19-11.977c1.114-0.972 1.814-2.394 1.814-3.979 0-0.548-0.084-1.077-0.239-1.574zM49.189 37.73c-0.988 0.964-1.6 2.309-1.6 3.796 0 0.317 0.028 0.627 0.081 0.929l2.708 15.694-14.141-7.436c-0.716-0.384-1.566-0.61-2.469-0.61s-1.753 0.226-2.497 0.623l-14.113 7.422 2.712-15.726c0.049-0.27 0.076-0.58 0.076-0.897 0-1.488-0.613-2.832-1.599-3.795l-11.43-11.155 15.787-2.286c1.788-0.294 3.255-1.448 3.979-3.015l7.084-14.357 7.071 14.324c0.738 1.6 2.204 2.754 3.962 3.043l15.817 2.29z"></path>
</svg>
