<!-- Generated by IcoMoon.io -->
<svg version="1.1" xmlns="http://www.w3.org/2000/svg" width="67" height="64" viewBox="0 0 67 64">
<path d="M60.8 12.798c3.533 0 6.4 2.867 6.4 6.4v38.688c-0.033 3.376-2.799 6.116-6.176 6.116-0.062 0-0.162-0.002-0.224-0.004h-54.4c-0.062 0.002-0.162 0.004-0.224 0.004-3.376 0-6.143-2.74-6.176-6.116v-38.688c0-3.533 2.867-6.4 6.4-6.4h9.6v-6.4c0-3.533 2.867-6.4 6.4-6.4h22.4c3.533 0 6.4 2.867 6.4 6.4v6.4h9.6zM22.4 6.398v6.4h22.4v-6.4h-22.4zM60.8 57.598v-22.4h-22.4v6.4h-9.6v-6.4h-22.4v22.4h54.4zM38.4 28.798h22.4v-9.6h-54.4v9.6h22.4v-6.4h9.6v6.4z"></path>
</svg>
